<svg version="1.1" id="Layer_1" xmlns="http://www.w3.org/2000/svg" xmlns:xlink="http://www.w3.org/1999/xlink" x="0px" y="0px"
	 width="100%" viewBox="0 0 64 64" enable-background="new 0 0 64 64" xml:space="preserve">
<path fill="#121013" opacity="1.000000" stroke="none" 
	d="
M35.000000,65.000000 
	C24.186888,65.000000 13.873086,64.938293 3.561258,65.053421 
	C1.561409,65.075745 0.918425,64.825790 0.931974,62.570038 
	C1.049864,42.942566 1.016857,23.314041 0.970978,3.685966 
	C0.966898,1.940179 0.782116,0.901047 3.304908,0.919545 
	C23.098366,1.064677 42.893829,1.063964 62.687302,0.920003 
	C65.194878,0.901765 65.034859,1.917440 65.030518,3.678178 
	C64.982124,23.306240 64.950996,42.934757 65.067261,62.562252 
	C65.080536,64.802895 64.463577,65.083603 62.446354,65.055084 
	C53.465771,64.928131 44.482376,65.000000 35.000000,65.000000 
z"/>
<path fill="#DBDADC" opacity="1.000000" stroke="none" 
	d="
M28.476215,45.685616 
	C28.089039,47.640842 28.311714,49.413479 25.967194,50.299080 
	C24.862844,47.138584 25.324648,43.896423 25.477015,40.791122 
	C25.788193,34.449177 24.303022,28.022438 26.604904,21.541122 
	C28.207449,19.791063 29.914961,20.735720 31.774612,20.951073 
	C32.820179,21.399935 33.538036,21.486664 34.595528,21.432354 
	C35.129341,21.061487 35.323532,20.831654 35.796345,20.956882 
	C43.428581,23.318089 47.052654,27.378494 46.595428,33.099060 
	C46.157223,38.581665 41.052849,43.327099 34.624519,43.838036 
	C32.532227,42.583920 32.500175,40.878422 33.035713,38.671303 
	C33.844849,37.317596 34.809582,36.940300 36.252003,36.792130 
	C37.424152,36.847313 38.191135,37.175499 39.248131,37.283070 
	C39.495323,37.259407 39.947674,37.086903 40.148430,36.956203 
	C40.469868,36.710274 40.590549,36.595039 41.010277,36.017036 
	C41.609581,35.002396 41.742176,34.394054 41.993820,33.465538 
	C42.767582,31.181974 42.298145,29.570534 40.369259,28.108074 
	C36.999596,25.900669 33.871777,24.174665 30.102568,26.898682 
	C29.870180,27.933657 29.631769,28.617105 29.528137,29.729580 
	C29.080105,35.185173 30.343737,40.333733 28.476215,45.685616 
z"/>
<path fill="#E8E8E9" opacity="1.000000" stroke="none" 
	d="
M38.471107,38.279060 
	C37.125492,38.026585 36.114635,37.992641 34.724319,37.966141 
	C34.137859,37.863766 33.930859,37.753944 33.624252,37.309074 
	C33.412640,34.780952 36.828426,34.276497 36.189205,31.177887 
	C33.687031,32.866356 33.437790,35.116814 33.011932,37.640476 
	C32.905144,39.805862 33.236519,41.635090 32.456360,43.753254 
	C31.728603,44.747074 31.181658,45.388489 30.314072,46.016464 
	C28.110643,42.987793 29.333776,39.648697 29.013178,36.470818 
	C28.770552,34.065807 29.441343,31.585068 28.189800,28.854973 
	C28.036062,27.973999 28.112598,27.479195 28.075394,26.753147 
	C32.168266,23.632004 36.245281,24.784998 40.629898,27.199755 
	C42.907158,28.842083 43.129734,30.803305 42.775574,33.350140 
	C42.448692,34.612526 42.521942,35.482071 42.187408,36.684677 
	C41.934834,37.031773 42.024422,37.016937 42.019081,36.971848 
	C41.795094,37.187855 41.563511,37.436924 41.123344,37.837898 
	C40.927692,38.001827 41.002789,38.004574 41.004532,37.967041 
	C40.379959,38.533932 39.638180,38.691124 38.471107,38.279060 
z"/>
<path fill="#2E2E30" opacity="1.000000" stroke="none" 
	d="
M28.006847,28.969648 
	C30.659872,27.410866 29.844400,29.676855 29.867353,30.695135 
	C29.975306,35.484409 29.919310,40.277378 29.957626,45.536030 
	C29.699759,46.016335 29.406086,46.029640 28.671455,46.040607 
	C28.171722,40.515678 28.112944,34.993084 28.006847,28.969648 
z"/>
<path fill="#525254" opacity="1.000000" stroke="none" 
	d="
M32.610550,44.109344 
	C32.222610,41.985725 32.169674,39.865788 32.236458,37.306351 
	C32.697823,36.596432 33.084442,36.491093 33.743629,36.767826 
	C34.002377,37.161396 34.033527,37.337948 34.204769,37.744045 
	C34.319824,39.636230 34.294788,41.298870 34.256813,43.381641 
	C33.811096,43.905525 33.378323,44.009277 32.610550,44.109344 
z"/>
<path fill="#030205" opacity="1.000000" stroke="none" 
	d="
M31.858229,21.021795 
	C30.649879,21.393536 29.197443,21.473866 27.321478,21.437443 
	C28.285831,19.652416 29.886057,19.680643 31.858229,21.021795 
z"/>
<path fill="#030205" opacity="1.000000" stroke="none" 
	d="
M35.958015,21.150570 
	C35.883781,21.375818 35.692596,21.439690 35.218285,21.397442 
	C35.237125,21.190611 35.539093,21.089901 35.958015,21.150570 
z"/>
<path fill="#1C1B1D" opacity="1.000000" stroke="none" 
	d="
M41.178787,27.879276 
	C37.028519,25.599230 32.991711,24.574951 28.326267,26.931095 
	C27.908497,24.250000 29.317518,23.997786 31.163845,24.006292 
	C34.529190,24.021795 37.866207,23.987711 40.897263,26.528824 
	C41.189159,27.094582 41.295433,27.329176 41.178787,27.879276 
z"/>
<path fill="#424144" opacity="1.000000" stroke="none" 
	d="
M41.068649,28.553844 
	C40.996651,27.974186 41.037437,27.753588 41.080559,27.196487 
	C44.345768,28.216988 44.176147,30.874022 43.322495,33.829926 
	C42.865059,34.195190 42.744446,34.393089 42.409523,34.317268 
	C42.061558,32.292973 42.358608,30.457291 41.068649,28.553844 
z"/>
<path fill="#1C1B1D" opacity="1.000000" stroke="none" 
	d="
M37.993179,38.377510 
	C38.933605,37.776066 39.730862,37.491600 40.767197,37.568321 
	C40.290768,39.573238 39.454193,40.717438 37.993179,38.377510 
z"/>
<path fill="#1C1B1D" opacity="1.000000" stroke="none" 
	d="
M42.040855,34.464794 
	C42.195213,34.043552 42.592659,34.058277 42.789162,34.027786 
	C42.871979,34.950493 42.758289,35.903687 42.289719,36.944328 
	C40.420837,36.350266 41.811451,35.603336 42.040855,34.464794 
z"/>
<path fill="#1C1B1D" opacity="1.000000" stroke="none" 
	d="
M41.259060,38.033916 
	C40.378521,37.390476 40.461056,36.871208 41.584473,36.683929 
	C41.872639,37.306511 41.731533,37.686260 41.259060,38.033916 
z"/>
<path fill="#0C0B0D" opacity="1.000000" stroke="none" 
	d="
M34.231712,36.696548 
	C33.614769,36.947598 33.258312,36.910358 32.629021,36.869980 
	C32.335373,35.715832 32.022888,34.468708 32.362972,33.436611 
	C32.857426,31.936029 30.564066,29.204851 34.270679,29.002800 
	C36.454147,28.883780 38.694553,28.540894 39.256065,31.365967 
	C39.764187,33.922413 38.437160,35.522339 35.948017,36.157455 
	C35.472382,36.278816 34.977959,36.326557 34.231712,36.696548 
z"/>
</svg>