<svg version="1.1" id="Layer_1" xmlns="http://www.w3.org/2000/svg" xmlns:xlink="http://www.w3.org/1999/xlink" x="0px" y="0px"
	 width="100%" viewBox="0 0 64 64" enable-background="new 0 0 64 64" xml:space="preserve">
<path fill="#121013" opacity="1.000000" stroke="none" 
	d="
M35.000000,65.000000 
	C24.186888,65.000000 13.873086,64.938293 3.561258,65.053421 
	C1.561409,65.075745 0.918425,64.825790 0.931974,62.570038 
	C1.049864,42.942566 1.016857,23.314041 0.970978,3.685966 
	C0.966898,1.940179 0.782116,0.901047 3.304908,0.919545 
	C23.098366,1.064677 42.893829,1.063964 62.687302,0.920003 
	C65.194878,0.901765 65.034859,1.917440 65.030518,3.678178 
	C64.982124,23.306240 64.950996,42.934757 65.067261,62.562252 
	C65.080536,64.802895 64.463577,65.083603 62.446354,65.055084 
	C53.465771,64.928131 44.482376,65.000000 35.000000,65.000000 
z"/>
<path fill="#DBDADC" opacity="1.000000" stroke="none" 
	d="
M31.774584,20.951046 
	C32.820202,21.399910 33.538052,21.486650 34.595528,21.432339 
	C35.129337,21.061462 35.323528,20.831642 35.796341,20.956867 
	C43.428570,23.318144 47.052574,27.378431 46.595432,33.098927 
	C46.157303,38.581539 41.053268,43.326843 34.624813,43.838100 
	C32.532185,42.584221 32.500294,40.878658 33.035706,38.671516 
	C33.844730,37.317799 34.809402,36.940487 36.251694,36.792274 
	C37.424381,36.847408 38.191818,37.176453 39.252487,37.281975 
	C39.502583,37.256989 39.963387,37.074535 40.169357,36.933964 
	C40.496647,36.672501 40.617970,36.551605 41.029572,35.973885 
	C41.592678,34.993099 41.722404,34.421444 41.956886,33.549721 
	C42.840790,31.129387 42.301628,29.434593 40.180347,27.946457 
	C38.238930,26.322451 36.216084,25.789085 34.112083,25.522974 
	C31.238115,25.159477 29.276239,25.964720 29.495121,29.745640 
	C29.099590,35.192097 30.334072,40.334198 28.476408,45.685013 
	C28.089033,47.640820 28.311703,49.413418 25.967230,50.299068 
	C24.862846,47.138630 25.324665,43.896511 25.477020,40.791260 
	C25.788176,34.449394 24.303102,28.022755 26.604752,21.541447 
	C28.207132,19.790863 29.914825,20.735815 31.774584,20.951046 
z"/>
<path fill="#E8E8E9" opacity="1.000000" stroke="none" 
	d="
M38.471142,38.279091 
	C37.125519,38.026630 36.114666,37.992676 34.724354,37.966171 
	C34.137882,37.863770 33.930866,37.753922 33.624268,37.308975 
	C33.494255,34.820045 36.641609,34.186695 36.420689,31.020454 
	C33.686958,32.867401 33.437069,35.117863 33.011894,37.642380 
	C32.905098,39.808250 33.236748,41.637959 32.455692,43.756546 
	C31.727955,44.749516 31.180994,45.389946 30.313713,46.016685 
	C27.900404,40.766167 29.602222,35.263348 28.754387,29.494942 
	C28.131557,26.445290 28.924980,24.987545 31.868500,24.987421 
	C34.859909,24.987297 37.778267,25.053677 40.653954,27.210196 
	C42.916771,28.861263 43.129440,30.821915 42.772629,33.361183 
	C42.449631,34.620300 42.521832,35.487209 42.187080,36.686058 
	C41.934853,37.031826 42.024479,37.016979 42.019142,36.971870 
	C41.795116,37.187859 41.563499,37.436935 41.123322,37.837975 
	C40.927681,38.001953 41.002876,38.004692 41.004623,37.967110 
	C40.380035,38.533939 39.638237,38.691113 38.471142,38.279091 
z"/>
<path fill="#2E2E30" opacity="1.000000" stroke="none" 
	d="
M29.329617,28.647369 
	C29.792816,34.233658 29.857336,39.652512 29.957624,45.537178 
	C29.699718,46.016300 29.406044,46.029613 28.671412,46.040588 
	C28.176762,40.657917 28.123070,35.277580 28.144022,29.433840 
	C28.456089,28.806934 28.693512,28.643436 29.329617,28.647369 
z"/>
<path fill="#525254" opacity="1.000000" stroke="none" 
	d="
M33.743629,36.767822 
	C34.002377,37.161400 34.033535,37.337959 34.204796,37.744072 
	C34.319881,39.636280 34.294865,41.298935 34.257019,43.381733 
	C33.811230,43.906063 33.378277,44.010258 32.610123,44.111771 
	C32.222191,41.988140 32.169460,39.867191 32.236458,37.306549 
	C32.697823,36.596443 33.084438,36.491093 33.743629,36.767822 
z"/>
<path fill="#030205" opacity="1.000000" stroke="none" 
	d="
M31.858244,21.021740 
	C30.649872,21.393459 29.197397,21.473749 27.321320,21.437496 
	C28.285511,19.652010 29.885900,19.680696 31.858244,21.021740 
z"/>
<path fill="#030205" opacity="1.000000" stroke="none" 
	d="
M35.958004,21.150532 
	C35.883778,21.375784 35.692593,21.439657 35.218277,21.397408 
	C35.237114,21.190571 35.539078,21.089861 35.958004,21.150532 
z"/>
<path fill="#1C1B1D" opacity="1.000000" stroke="none" 
	d="
M29.790766,28.444471 
	C29.476479,28.838665 29.224659,28.862530 28.595753,28.928413 
	C27.419456,25.303703 28.434277,23.504671 32.628571,23.963392 
	C35.497581,24.277172 38.311218,24.363598 40.897045,26.528608 
	C41.189167,27.094584 41.295437,27.329180 41.178783,27.879276 
	C38.218105,25.987110 35.031261,25.688923 31.665333,25.829729 
	C29.977032,25.900356 29.797541,26.796141 29.790766,28.444471 
z"/>
<path fill="#424144" opacity="1.000000" stroke="none" 
	d="
M41.068642,28.553841 
	C40.996647,27.974182 41.037434,27.753586 41.080559,27.196487 
	C44.345787,28.217001 44.176178,30.874027 43.322445,33.829922 
	C42.865017,34.195145 42.744427,34.393032 42.409554,34.317223 
	C42.061512,32.292965 42.358620,30.457270 41.068642,28.553841 
z"/>
<path fill="#1B1B1D" opacity="1.000000" stroke="none" 
	d="
M37.993248,38.377556 
	C38.933678,37.776070 39.730984,37.491562 40.767326,37.568291 
	C40.290806,39.572948 39.454296,40.717373 37.993248,38.377556 
z"/>
<path fill="#1B1B1D" opacity="1.000000" stroke="none" 
	d="
M42.040928,34.464775 
	C42.195271,34.043518 42.592659,34.058331 42.789131,34.027794 
	C42.871937,34.950466 42.758270,35.903667 42.289726,36.944351 
	C40.420914,36.350254 41.811558,35.603348 42.040928,34.464775 
z"/>
<path fill="#1B1B1D" opacity="1.000000" stroke="none" 
	d="
M41.259048,38.033924 
	C40.378475,37.390572 40.461025,36.871273 41.584496,36.683937 
	C41.872669,37.306469 41.731541,37.686184 41.259048,38.033924 
z"/>
<path fill="#0C0B0D" opacity="1.000000" stroke="none" 
	d="
M34.231712,36.696552 
	C33.614769,36.947605 33.258312,36.910370 32.629021,36.869995 
	C32.335373,35.715839 32.022892,34.468716 32.362976,33.436623 
	C32.857433,31.936039 30.564077,29.204865 34.270679,29.002806 
	C36.454144,28.883781 38.694553,28.540890 39.256069,31.365961 
	C39.764194,33.922409 38.437157,35.522331 35.948017,36.157455 
	C35.472382,36.278816 34.977959,36.326557 34.231712,36.696552 
z"/>
</svg>